<?xml version="1.0" encoding="UTF-8"?>
<svg width="97px" height="31px" viewBox="0 0 97 31" version="1.1" xmlns="http://www.w3.org/2000/svg" xmlns:xlink="http://www.w3.org/1999/xlink">
    <!-- Generator: Sketch 58 (84663) - https://sketch.com -->
    <title>hipper</title>
    <desc>Created with Sketch.</desc>
    <g id="Page-1" stroke="none" stroke-width="1" fill="none" fill-rule="evenodd">
        <g id="Desktop-HD" transform="translate(-101.000000, -78.000000)" fill="#FEFEFF" fill-rule="nonzero">
            <path d="M101.856,80.112 C101.856,79.5359971 102.026665,79.1093347 102.368,78.832 C102.709335,78.5546653 103.18933,78.416 103.808,78.416 C104.192002,78.416 104.543998,78.4639995 104.864,78.56 L105.264,78.6840001 C105.370667,78.7186667 105.450666,78.7466666 105.504,78.768 L105.504,87.568 C105.930669,87.0559974 106.570662,86.5760022 107.424,86.128 C108.277338,85.6799978 109.38666,85.456 110.752,85.456 C111.733338,85.456 112.634663,85.5946653 113.456,85.872 C114.277337,86.1493347 114.986664,86.5599973 115.584,87.104 C116.181336,87.6480027 116.639998,88.3253293 116.96,89.136 C117.280002,89.9466707 117.44,90.8959946 117.44,91.984 L117.44,102 L113.792,102 L113.792,93.072 C113.792,91.663993 113.49867,90.597337 112.912,89.872 C112.32533,89.146663 111.31734,88.784 109.888,88.784 C108.437326,88.784 107.344004,89.2053291 106.608,90.048 C105.871996,90.8906709 105.504,92.0053264 105.504,93.392 L105.504,102 L101.856,102 L101.856,80.112 Z M121.312,87.632 C121.312,87.0346637 121.482665,86.602668 121.824,86.336 C122.165335,86.069332 122.64533,85.936 123.264,85.936 C123.648002,85.936 123.999998,85.9839995 124.32,86.08 L124.72,86.2040001 C124.826667,86.2386667 124.906666,86.2666666 124.96,86.288 L124.96,102 L121.312,102 L121.312,87.632 Z M123.136,78.736 C123.75467,78.736 124.277331,78.9493312 124.704,79.376 C125.130669,79.8026688 125.344,80.3253302 125.344,80.944 C125.344,81.5626698 125.130669,82.0853312 124.704,82.512 C124.277331,82.9386688 123.75467,83.152 123.136,83.152 C122.51733,83.152 121.994669,82.9386688 121.568,82.512 C121.141331,82.0853312 120.928,81.5626698 120.928,80.944 C120.928,80.3253302 121.141331,79.8026688 121.568,79.376 C121.994669,78.9493312 122.51733,78.736 123.136,78.736 Z M128.48,94.704 C128.48,93.2106592 128.693331,91.893339 129.12,90.752 C129.546669,89.610661 130.143996,88.6506706 130.912,87.872 C131.680004,87.0933294 132.607995,86.5013354 133.696,86.096 C134.784005,85.6906646 135.989327,85.488 137.312,85.488 C138.528006,85.488 139.647995,85.7013312 140.672,86.128 C141.696005,86.5546688 142.586663,87.1413296 143.344,87.888 C144.101337,88.6346704 144.693331,89.5306614 145.12,90.576 C145.546669,91.6213386 145.76,92.7519939 145.76,93.968 C145.76,95.2053395 145.552002,96.3413282 145.136,97.376 C144.719998,98.4106718 144.144004,99.3013296 143.408,100.048 C142.671996,100.79467 141.808005,101.375998 140.816,101.792 C139.823995,102.208002 138.741339,102.416 137.568,102.416 C136.351994,102.416 135.274671,102.181336 134.336,101.712 C133.397329,101.242664 132.661336,100.66667 132.128,99.984 L132.128,108.4 L128.48,108.4 L128.48,94.704 Z M137.056,99.184 C137.781337,99.184 138.447997,99.050668 139.056,98.784 C139.664003,98.517332 140.186664,98.1493357 140.624,97.68 C141.061336,97.2106643 141.397332,96.6560032 141.632,96.016 C141.866668,95.3759968 141.984,94.6826704 141.984,93.936 C141.984,93.210663 141.866668,92.5333365 141.632,91.904 C141.397332,91.2746635 141.061336,90.730669 140.624,90.272 C140.186664,89.813331 139.664003,89.450668 139.056,89.184 C138.447997,88.917332 137.781337,88.784 137.056,88.784 C136.330663,88.784 135.664003,88.9119987 135.056,89.168 C134.447997,89.4240013 133.925336,89.7759978 133.488,90.224 C133.050664,90.6720022 132.709335,91.2106635 132.464,91.84 C132.218665,92.4693365 132.096,93.1679962 132.096,93.936 C132.096,94.6826704 132.218665,95.3759968 132.464,96.016 C132.709335,96.6560032 133.045331,97.2106643 133.472,97.68 C133.898669,98.1493357 134.415997,98.517332 135.024,98.784 C135.632003,99.050668 136.30933,99.184 137.056,99.184 Z M148.48,94.704 C148.48,93.2106592 148.693331,91.893339 149.12,90.752 C149.546669,89.610661 150.143996,88.6506706 150.912,87.872 C151.680004,87.0933294 152.607995,86.5013354 153.696,86.096 C154.784005,85.6906646 155.989327,85.488 157.312,85.488 C158.528006,85.488 159.647995,85.7013312 160.672,86.128 C161.696005,86.5546688 162.586663,87.1413296 163.344,87.888 C164.101337,88.6346704 164.693331,89.5306614 165.12,90.576 C165.546669,91.6213386 165.76,92.7519939 165.76,93.968 C165.76,95.2053395 165.552002,96.3413282 165.136,97.376 C164.719998,98.4106718 164.144004,99.3013296 163.408,100.048 C162.671996,100.79467 161.808005,101.375998 160.816,101.792 C159.823995,102.208002 158.741339,102.416 157.568,102.416 C156.351994,102.416 155.274671,102.181336 154.336,101.712 C153.397329,101.242664 152.661336,100.66667 152.128,99.984 L152.128,108.4 L148.48,108.4 L148.48,94.704 Z M157.056,99.184 C157.781337,99.184 158.447997,99.050668 159.056,98.784 C159.664003,98.517332 160.186664,98.1493357 160.624,97.68 C161.061336,97.2106643 161.397332,96.6560032 161.632,96.016 C161.866668,95.3759968 161.984,94.6826704 161.984,93.936 C161.984,93.210663 161.866668,92.5333365 161.632,91.904 C161.397332,91.2746635 161.061336,90.730669 160.624,90.272 C160.186664,89.813331 159.664003,89.450668 159.056,89.184 C158.447997,88.917332 157.781337,88.784 157.056,88.784 C156.330663,88.784 155.664003,88.9119987 155.056,89.168 C154.447997,89.4240013 153.925336,89.7759978 153.488,90.224 C153.050664,90.6720022 152.709335,91.2106635 152.464,91.84 C152.218665,92.4693365 152.096,93.1679962 152.096,93.936 C152.096,94.6826704 152.218665,95.3759968 152.464,96.016 C152.709335,96.6560032 153.045331,97.2106643 153.472,97.68 C153.898669,98.1493357 154.415997,98.517332 155.024,98.784 C155.632003,99.050668 156.30933,99.184 157.056,99.184 Z M181.824,98.256 L183.168,100.816 L182.965333,100.936889 C182.808889,101.026963 182.609779,101.135999 182.368,101.264 C182.005332,101.456001 181.552003,101.637332 181.008,101.808 C180.463997,101.978668 179.83467,102.127999 179.12,102.256 C178.40533,102.384001 177.621338,102.448 176.768,102.448 C175.573327,102.448 174.458672,102.266668 173.424,101.904 C172.389328,101.541332 171.482671,101.00267 170.704,100.288 C169.925329,99.5733298 169.312002,98.6986718 168.864,97.664 C168.415998,96.6293282 168.192,95.4400067 168.192,94.096 C168.192,92.8159936 168.410664,91.6480053 168.848,90.592 C169.285336,89.5359947 169.893329,88.6293371 170.672,87.872 C171.450671,87.1146629 172.367995,86.5280021 173.424,86.112 C174.480005,85.6959979 175.637327,85.488 176.896,85.488 C178.005339,85.488 178.986662,85.6319986 179.84,85.92 C180.693338,86.2080014 181.41333,86.5919976 182,87.072 C182.58667,87.5520024 183.029332,88.1119968 183.328,88.752 C183.626668,89.3920032 183.776,90.074663 183.776,90.8 C183.776,91.5466704 183.637335,92.223997 183.36,92.832 C183.082665,93.440003 182.592004,93.9626645 181.888,94.4 C181.183996,94.8373355 180.234673,95.1786654 179.04,95.424 C177.845327,95.6693346 176.330676,95.792 174.496,95.792 C174.069331,95.792 173.669335,95.7866667 173.296,95.776 L172.513778,95.7475556 C172.377482,95.7416297 172.238223,95.7351111 172.096,95.728 C172.266668,96.8160054 172.794662,97.6959966 173.68,98.368 C174.565338,99.0400034 175.829325,99.376 177.472,99.376 C178.026669,99.376 178.538664,99.3333338 179.008,99.248 C179.477336,99.1626662 179.898665,99.0560006 180.272,98.928 C180.645335,98.7999994 180.965332,98.6720006 181.232,98.544 L181.824,98.256 L181.824,98.256 Z M171.936,93.232 C172.426669,93.2533334 172.895998,93.264 173.344,93.264 L174.688,93.264 C175.861339,93.264 176.810663,93.1893341 177.536,93.04 C178.261337,92.8906659 178.826665,92.6986678 179.232,92.464 C179.637335,92.2293322 179.903999,91.9626682 180.032,91.664 C180.160001,91.3653318 180.224,91.0560016 180.224,90.736 C180.224,89.9253293 179.89867,89.3173354 179.248,88.912 C178.59733,88.5066646 177.792005,88.304 176.832,88.304 C176.042663,88.304 175.349336,88.4426653 174.752,88.72 C174.154664,88.9973347 173.653335,89.365331 173.248,89.824 C172.842665,90.282669 172.528001,90.8106637 172.304,91.408 C172.079999,92.0053363 171.957333,92.6133302 171.936,93.232 Z M186.496,91.664 C186.496,89.7013235 187.098661,88.1813387 188.304,87.104 C189.509339,86.0266613 191.178656,85.488 193.312,85.488 C194.656007,85.488 195.749329,85.6746648 196.592,86.048 C197.434671,86.4213352 197.856,86.9919962 197.856,87.76 C197.856,88.1226685 197.754668,88.474665 197.552,88.816 C197.349332,89.157335 197.184001,89.3706662 197.056,89.456 C196.693332,89.2853325 196.245336,89.1253341 195.712,88.976 C195.178664,88.8266659 194.57067,88.752 193.888,88.752 C191.391988,88.752 190.144,90.0746534 190.144,92.72 L190.144,102 L186.496,102 L186.496,91.664 Z" id="hipper"></path>
        </g>
    </g>
</svg>