<svg width="24px" height="24px" viewBox="0 0 24 24" xmlns="http://www.w3.org/2000/svg">
    <path d="M19.4571429,8.10857143 L9.82285714,17.7428571 C9.66731429,17.9085895 9.45014727,18.0026034 9.22285714,18.0026034 C8.99556701,18.0026034 8.7784,17.9085895 8.62285714,17.7428571 L4.54285714,13.7142857 C4.38058916,13.5533429 4.28931572,13.3342607 4.28931572,13.1057143 C4.28931572,12.8771678 4.38058916,12.6580857 4.54285714,12.4971429 L5.45142857,11.5885714 C5.60697143,11.422839 5.82413844,11.3288252 6.05142857,11.3288252 C6.2787187,11.3288252 6.49588572,11.422839 6.65142857,11.5885714 L9.22285714,14.1428571 L17.3485714,6.01714286 C17.6818659,5.69044896 18.215277,5.69044896 18.5485714,6.01714286 L19.4571429,6.92571429 C19.7727893,7.25682711 19.7727893,7.77745861 19.4571429,8.10857143 Z" fill="#FFFFFF" fill-rule="nonzero"></path>
</svg>
