<svg viewBox="0 0 24 24" xmlns="http://www.w3.org/2000/svg">
        <path d="M7.15,10.07 C7.05534367,9.9761167 7.00210084,9.84831877 7.00210084,9.715 C7.00210084,9.58168123 7.05534367,9.4538833 7.15,9.36 L11.28,5.22 C11.4205174,5.07930751 11.6111546,5.00017505 11.81,5 L12.19,5 C12.3884141,5.00230401 12.5782794,5.08111602 12.72,5.22 L16.85,9.36 C16.9446563,9.4538833 16.9978992,9.58168123 16.9978992,9.715 C16.9978992,9.84831877 16.9446563,9.9761167 16.85,10.07 L16.14,10.78 C16.0478364,10.8740641 15.9216897,10.9270714 15.79,10.9270714 C15.6583103,10.9270714 15.5321636,10.8740641 15.44,10.78 L12,7.33 L8.56,10.78 C8.4661167,10.8746563 8.33831877,10.9278992 8.205,10.9278992 C8.07168123,10.9278992 7.9438833,10.8746563 7.85,10.78 L7.15,10.07 Z M16.15,13.22 C16.0561167,13.1253437 15.9283188,13.0721008 15.795,13.0721008 C15.6616812,13.0721008 15.5338833,13.1253437 15.44,13.22 L12,16.67 L8.56,13.23 C8.46783641,13.1359359 8.34168969,13.0829286 8.21,13.0829286 C8.07831031,13.0829286 7.95216359,13.1359359 7.86,13.23 L7.15,13.94 C7.05534367,14.0338833 7.00210084,14.1616812 7.00210084,14.295 C7.00210084,14.4283188 7.05534367,14.5561167 7.15,14.65 L11.28,18.79 C11.4217206,18.928884 11.6115859,19.007696 11.81,19.01 L12.19,19.01 C12.3888454,19.0098249 12.5794826,18.9306925 12.72,18.79 L16.85,14.65 C16.9446563,14.5561167 16.9978992,14.4283188 16.9978992,14.295 C16.9978992,14.1616812 16.9446563,14.0338833 16.85,13.94 L16.15,13.22 Z" fill="#5491F4"></path>
</svg>
